<?xml version="1.0" encoding="utf-8"?>
<!-- Generator: Adobe Illustrator 15.0.0, SVG Export Plug-In . SVG Version: 6.00 Build 0)  -->
<!DOCTYPE svg PUBLIC "-//W3C//DTD SVG 1.1//EN" "http://www.w3.org/Graphics/SVG/1.1/DTD/svg11.dtd">
<svg version="1.1" id="Layer_1" xmlns="http://www.w3.org/2000/svg" xmlns:xlink="http://www.w3.org/1999/xlink" x="0px" y="0px"
	 width="500px" height="500px" viewBox="0 0 500 500" enable-background="new 0 0 500 500" xml:space="preserve">
<g>
	<defs>
		<rect id="SVGID_1_" width="500" height="500"/>
	</defs>
	<clipPath id="SVGID_2_">
		<use xlink:href="#SVGID_1_"  overflow="visible"/>
	</clipPath>
	<rect clip-path="url(#SVGID_2_)" fill="#4B5B41" width="500" height="500"/>
	<path clip-path="url(#SVGID_2_)" fill="#D9D187" d="M-21.842-6.618c-5.943,7.293-8.678,15.851-8.533,25.336
		c0.288,18.978,16.019,31.823,21.445,49.25c8.469,27.196-4.436,42.519-19.102,63.32c-11.431,16.214-15.567,32.152,1.331,45.942
		c14.852,12.12,38.583,14.619,57.125,12.687c21.034-2.192,36.377-15.389,46.153-33.545c13.515-25.1-31.873-46.57-18.297-73.262
		c8.417-16.55,62.953-31.867,34.401-56.253c-4.977-4.25-11.217-6.95-10.191-15.098c1.729-13.733,27.648-18.394,36.917-25.928
		c13.524-10.992,34.068-47.75,9.708-58.666c-23.021-10.316-29.918,16.46-36.613,31.781c-8.465,19.369-17.081,6.138-31.49,2.692
		c-7.602-1.818-14.954,2.481-22.048,4.559c-6.471,1.896-13.138,2.686-19.677,4.299C4.166-25.773-11.77-18.978-21.842-6.618z"/>
	<path clip-path="url(#SVGID_2_)" fill="#D9D187" d="M478.158-6.618c-5.943,7.293-8.678,15.851-8.533,25.336
		c0.287,18.978,16.019,31.823,21.445,49.25c8.469,27.196-4.436,42.519-19.103,63.32c-11.431,16.214-15.567,32.152,1.331,45.942
		c14.852,12.12,38.582,14.619,57.124,12.687c21.034-2.192,36.377-15.389,46.153-33.545c13.514-25.1-31.873-46.57-18.298-73.262
		c8.417-16.55,62.953-31.867,34.401-56.253c-4.977-4.25-11.217-6.95-10.191-15.098c1.729-13.733,27.648-18.394,36.918-25.928
		c13.523-10.992,34.068-47.75,9.708-58.666c-23.021-10.316-29.918,16.46-36.612,31.781c-8.466,19.369-17.081,6.138-31.49,2.692
		c-7.602-1.818-14.954,2.481-22.048,4.559c-6.471,1.896-13.138,2.686-19.677,4.299C504.166-25.773,488.23-18.978,478.158-6.618z"/>
	<path clip-path="url(#SVGID_2_)" fill="#D9D187" d="M478.158,493.383c-5.943,7.293-8.678,15.85-8.533,25.336
		c0.287,18.979,16.019,31.822,21.445,49.25c8.469,27.195-4.436,42.519-19.103,63.32c-11.431,16.214-15.567,32.152,1.331,45.942
		c14.852,12.12,38.582,14.619,57.124,12.687c21.034-2.192,36.377-15.389,46.153-33.545c13.514-25.1-31.873-46.57-18.298-73.262
		c8.417-16.551,62.953-31.867,34.401-56.254c-4.977-4.25-11.217-6.949-10.191-15.098c1.729-13.732,27.648-18.395,36.918-25.928
		c13.523-10.992,34.068-47.75,9.708-58.666c-23.021-10.316-29.918,16.461-36.612,31.781c-8.466,19.369-17.081,6.139-31.49,2.691
		c-7.602-1.818-14.954,2.481-22.048,4.56c-6.471,1.896-13.138,2.687-19.677,4.299C504.166,474.227,488.23,481.021,478.158,493.383z"
		/>
	<path clip-path="url(#SVGID_2_)" fill="#D9D187" d="M-21.842,493.383c-5.943,7.293-8.678,15.85-8.533,25.336
		c0.287,18.979,16.019,31.822,21.445,49.25c8.469,27.195-4.436,42.519-19.103,63.32c-11.431,16.214-15.567,32.152,1.331,45.942
		c14.852,12.12,38.582,14.619,57.124,12.687c21.034-2.192,36.377-15.389,46.153-33.545c13.514-25.1-31.873-46.57-18.298-73.262
		c8.417-16.551,62.953-31.867,34.401-56.254c-4.977-4.25-11.217-6.949-10.191-15.098c1.729-13.732,27.648-18.395,36.918-25.928
		c13.523-10.992,34.068-47.75,9.708-58.666c-23.021-10.316-29.918,16.461-36.612,31.781c-8.466,19.369-17.081,6.139-31.49,2.691
		c-7.602-1.818-14.954,2.481-22.048,4.56c-6.471,1.896-13.138,2.687-19.677,4.299C4.166,474.227-11.77,481.021-21.842,493.383z"/>
	<path clip-path="url(#SVGID_2_)" fill="#8C9557" d="M457.73-23.685c-22.359,8.422-36.34,28.687-49.24,47.615
		c-8.922,13.09-16.512,25.788-23.755,39.885c-6.893,13.416-17.009,24.822-26.064,36.782c-8.61,11.375-16.899,19.738-29.065,27.295
		c-8.424,5.23-17.484,8.97-22.445,18.043c-6.973,12.752-7.332,23.124,5.514,31.124c18.775,11.691,45.242,21.405,67.723,18.981
		c18.125-1.955,39.631-11.66,43.521-31.261c3.613-18.191-11.168-36.255-5.883-53.905c5.031-16.802,23.34-13.806,36.893-13.776
		c9.357,0.02,17.729,0.885,25.965-4.113c6.111-3.71,13.484-8.478,15.098-15.675c2.752-12.28-8.455-19.56-12.486-29.72
		c-3.93-9.904-1.278-12.785,9.398-12.691c18.839,0.165,39.959-6.542,43.624-27.548c0.726-4.161,0.089-9.416-1.111-13.172
		c-2.021-6.323-8.161-7.268-12.745-11.282c-4.85-4.25-7.179-7.292-13.811-8.238C492.231-27.713,473.814-29.742,457.73-23.685z"/>
	<path clip-path="url(#SVGID_2_)" fill="#8C9557" d="M-36.982-23.14c-22.359,8.422-36.34,28.687-49.24,47.615
		c-8.922,13.09-16.512,25.788-23.755,39.885c-6.893,13.416-17.009,24.822-26.064,36.782c-8.61,11.375-16.899,19.738-29.065,27.295
		c-8.424,5.23-17.484,8.97-22.445,18.043c-6.973,12.752-7.332,23.124,5.514,31.124c18.775,11.691,45.242,21.405,67.723,18.981
		c18.125-1.955,39.631-11.66,43.521-31.261c3.613-18.191-11.168-36.255-5.883-53.905c5.031-16.802,23.34-13.806,36.893-13.776
		c9.357,0.02,17.729,0.885,25.965-4.113c6.111-3.71,13.484-8.478,15.098-15.675c2.752-12.28-8.455-19.56-12.486-29.72
		c-3.93-9.904-1.278-12.785,9.398-12.691c18.839,0.165,39.959-6.542,43.624-27.548c0.726-4.161,0.089-9.416-1.111-13.172
		c-2.021-6.323-8.161-7.268-12.745-11.282c-4.85-4.25-7.179-7.292-13.811-8.238C-2.481-27.168-20.898-29.198-36.982-23.14z"/>
	<path clip-path="url(#SVGID_2_)" fill="#8C9557" d="M-42.27,476.315c-22.359,8.422-36.34,28.687-49.24,47.615
		c-8.922,13.09-16.512,25.788-23.755,39.885c-6.893,13.416-17.009,24.822-26.064,36.782c-8.61,11.375-16.899,19.738-29.065,27.295
		c-8.424,5.23-17.484,8.97-22.445,18.043c-6.973,12.752-7.332,23.124,5.514,31.124c18.775,11.691,45.242,21.405,67.723,18.981
		c18.125-1.955,39.631-11.66,43.521-31.261c3.613-18.191-11.168-36.255-5.883-53.905c5.031-16.802,23.34-13.806,36.893-13.776
		c9.357,0.02,17.729,0.885,25.965-4.113c6.111-3.71,13.484-8.478,15.098-15.675c2.752-12.28-8.455-19.56-12.486-29.72
		c-3.93-9.904-1.278-12.785,9.398-12.691c18.839,0.165,39.959-6.542,43.624-27.548c0.726-4.161,0.089-9.416-1.111-13.172
		c-2.021-6.323-8.161-7.268-12.745-11.282c-4.85-4.25-7.179-7.292-13.811-8.238C-7.769,472.287-26.186,470.258-42.27,476.315z"/>
	<path clip-path="url(#SVGID_2_)" fill="#8C9557" d="M457.73,476.315c-22.359,8.422-36.34,28.687-49.24,47.615
		c-8.922,13.09-16.512,25.788-23.755,39.885c-6.893,13.416-17.009,24.822-26.064,36.782c-8.61,11.375-16.899,19.738-29.065,27.295
		c-8.424,5.23-17.484,8.97-22.445,18.043c-6.973,12.752-7.332,23.124,5.514,31.124c18.775,11.691,45.242,21.405,67.723,18.981
		c18.125-1.955,39.631-11.66,43.521-31.261c3.613-18.191-11.168-36.255-5.883-53.905c5.031-16.802,23.34-13.806,36.893-13.776
		c9.357,0.02,17.729,0.885,25.965-4.113c6.111-3.71,13.484-8.478,15.098-15.675c2.752-12.28-8.455-19.56-12.486-29.72
		c-3.93-9.904-1.278-12.785,9.398-12.691c18.839,0.165,39.959-6.542,43.624-27.548c0.726-4.161,0.089-9.416-1.111-13.172
		c-2.021-6.323-8.161-7.268-12.745-11.282c-4.85-4.25-7.179-7.292-13.811-8.238C492.231,472.287,473.814,470.258,457.73,476.315z"/>
	<path clip-path="url(#SVGID_2_)" fill="#8C9557" d="M410.135,417.748c-4.515,5.839-6.334,10.526-6.121,18.187
		c0.211,7.546,4.049,13.545,0.842,20.971c-7.135,16.522-29.616,23.461-40.773,36.955c-10.523,12.73-12.652,27.076-3.271,41.27
		c8.24,12.468,20.544,20.896,35.463,23.403c14.172,2.383,35.125-1.473,45.414-12.118c8.472-8.768,8.662-19.867,5.07-30.885
		c-2.322-7.121-7.68-17.595-1.984-24.814c5.974-7.573,21.197-4.861,29.596-7.039c8.935-2.316,20.553-10.541,17.736-21.542
		c-2.255-8.81-11.971-10.251-18.237-15.092c-3.659-2.826-6.728-7.353-2.809-11.552c3.224-3.453,9.698-3.051,13.995-3.822
		c7.26-1.305,13.548-3.791,20.344-6.582c11.191-4.597,29.954-12.867,26.398-28.621c-1.265-5.604-5.385-10.956-10.525-13.218
		c-6.006-2.643-17.661-4.586-23.447-1.75c-6.168,3.024-10.912,12.239-18.795,8.168c-3.834-1.981-5.273-7.082-10.059-7.755
		c-3.659-0.515-6.287,1.794-9.209,3.591c-8.375,5.151-17.979,6.756-26.562,11.546C424.058,402.148,416.504,409.511,410.135,417.748z
		"/>
	<path clip-path="url(#SVGID_2_)" fill="#8C9557" d="M-89.865,417.748c-4.515,5.839-6.334,10.526-6.121,18.187
		c0.211,7.546,4.049,13.545,0.842,20.971c-7.135,16.522-29.616,23.461-40.773,36.955c-10.523,12.73-12.652,27.076-3.271,41.27
		c8.24,12.468,20.544,20.896,35.463,23.403c14.172,2.383,35.125-1.473,45.414-12.118c8.472-8.768,8.662-19.867,5.07-30.885
		c-2.322-7.121-7.68-17.595-1.984-24.814c5.974-7.573,21.197-4.861,29.596-7.039c8.935-2.316,20.553-10.541,17.736-21.542
		c-2.255-8.81-11.971-10.251-18.237-15.092c-3.659-2.826-6.728-7.353-2.809-11.552c3.224-3.453,9.698-3.051,13.995-3.822
		c7.26-1.305,13.548-3.791,20.344-6.582c11.191-4.597,29.954-12.867,26.398-28.621c-1.265-5.604-5.385-10.956-10.525-13.218
		c-6.006-2.643-17.661-4.586-23.447-1.75c-6.168,3.024-10.912,12.239-18.795,8.168c-3.834-1.981-5.273-7.082-10.059-7.755
		c-3.659-0.515-6.287,1.794-9.209,3.591c-8.375,5.151-17.979,6.756-26.562,11.546C-75.942,402.148-83.496,409.511-89.865,417.748z"
		/>
	<path clip-path="url(#SVGID_2_)" fill="#8C9557" d="M410.135-82.252c-4.515,5.839-6.334,10.526-6.121,18.187
		c0.211,7.546,4.049,13.545,0.842,20.971c-7.135,16.522-29.616,23.461-40.773,36.955c-10.523,12.73-12.652,27.076-3.271,41.27
		c8.24,12.468,20.544,20.896,35.463,23.403c14.172,2.383,35.125-1.473,45.414-12.118c8.472-8.768,8.662-19.867,5.07-30.885
		c-2.322-7.121-7.68-17.595-1.984-24.814c5.974-7.573,21.197-4.861,29.596-7.039c8.935-2.316,20.553-10.541,17.736-21.542
		c-2.255-8.81-11.971-10.251-18.237-15.092c-3.659-2.826-6.728-7.353-2.809-11.552c3.224-3.453,9.698-3.051,13.995-3.822
		c7.26-1.305,13.548-3.791,20.344-6.582c11.191-4.597,29.954-12.867,26.398-28.621c-1.265-5.604-5.385-10.956-10.525-13.218
		c-6.006-2.643-17.661-4.586-23.447-1.75c-6.168,3.024-10.912,12.239-18.795,8.168c-3.834-1.981-5.273-7.082-10.059-7.755
		c-3.659-0.515-6.287,1.794-9.209,3.591c-8.375,5.151-17.979,6.756-26.562,11.546C424.058-97.852,416.504-90.489,410.135-82.252z"/>
	<path clip-path="url(#SVGID_2_)" fill="#1E2E22" d="M49.674,138.298c-3.897,1.285-8.861-1.396-12.738-2.188
		c-4.67-0.955-9.25-2.171-14.024-2.167c-15.084,0.012-29.688,4.827-43.17,10.95c-6.007,2.729-12.678,7.22-12.259,14.678
		c0.59,10.502,9.023,14.242,0.878,23.836c-6.922,8.152-18.48,11.418-23.389,21.436c-4.484,9.152,0.887,19.001,8.21,25.174
		c7.394,6.231,22.364,10.441,31.924,8.972c13.966-2.148,22.022-11.764,28.842-22.752c13.734-22.129,41.211-5.054,60.993-13.477
		c7.07-3.009,7.724-7.979,7.232-14.883c-0.194-2.723-0.131-3.696-1.523-6.001c-2.741-4.537-10.423-4.765-12.832-8.496
		c-3.058-4.738,5.305-7.988,9.105-9.652c7.931-3.472,16.576-5.439,22.335-12.376c9.658-11.635-5.646-26.985-16.877-30.49
		c-3.424-1.068-8.297-2.124-11.902-1.096c-3.385,0.965-2.682,0.502-4.552,3.745c-2.317,4.018-0.451,7.708-1.878,11.479
		c-2.05,5.419-11.842,4.573-16.286,3.31H49.674z"/>
	<path clip-path="url(#SVGID_2_)" fill="#1E2E22" d="M549.674,138.298c-3.896,1.285-8.861-1.396-12.738-2.188
		c-4.67-0.955-9.25-2.171-14.024-2.167c-15.084,0.012-29.688,4.827-43.171,10.95c-6.006,2.729-12.678,7.22-12.258,14.678
		c0.59,10.502,9.022,14.242,0.877,23.836c-6.922,8.152-18.48,11.418-23.389,21.436c-4.484,9.152,0.888,19.001,8.211,25.174
		c7.393,6.231,22.363,10.441,31.924,8.972c13.966-2.148,22.022-11.764,28.842-22.752c13.734-22.129,41.211-5.054,60.993-13.477
		c7.07-3.009,7.724-7.979,7.232-14.883c-0.194-2.723-0.131-3.696-1.523-6.001c-2.741-4.537-10.423-4.765-12.831-8.496
		c-3.059-4.738,5.305-7.988,9.104-9.652c7.931-3.472,16.576-5.439,22.335-12.376c9.658-11.635-5.646-26.985-16.877-30.49
		c-3.424-1.068-8.298-2.124-11.902-1.096c-3.386,0.965-2.682,0.502-4.553,3.745c-2.317,4.018-0.451,7.708-1.878,11.479
		c-2.05,5.419-11.843,4.573-16.286,3.31H549.674z"/>
	<path clip-path="url(#SVGID_2_)" fill="#D9D187" d="M309.205,156.093c-11.236-5.447-21.279-9.897-33.789-10.275
		c-10.693-0.323-24.228-0.151-33.994,4.821c-6.375,3.245-9.782,9.744-13.983,15.274c-7.705,10.145-13.229,21.043-26.933,22.532
		c-9.347,1.016-18.456,0.338-27.641-1.412c-4.7-0.895-10.335-3.263-15.2-2.627c-8.054,1.054-8.98,13.274-11.676,20.122
		c-2.475,6.286-5.6,12.005-4.184,19.501c1.277,6.762,6.858,7.787,13.102,8.147c7.167,0.412,7.844-5.64,14.842-6.538
		c8.133-1.045,13.374,3.214,13.939,10.94c1.242,16.991-12.866,35.753-23.333,47.537c-10.284,11.58-22.381,22.327-29.025,36.506
		c-1.863,3.976-7.206,12.759-6.038,17.491c2.428,9.838,22.767,5.356,29.071,2.038c7.647-4.024,13.55-8.993,17.759-16.445
		c5.479-9.701,7.648-28.419,20.608-30.315c10.654-1.56,16.019,8.754,24.937-1.506c7.39-8.502,5.789-16.628,7.275-26.969
		c0.918-6.387,0.98-13.283,5.492-17.767c5.285-5.252,12.611-5.286,19.802-4.97c12.796,0.562,28.086,3.422,40.775,0.91
		c13.32-2.638,24.47-10.851,36.841-15.761c11.423-4.533,19.611-9.534,18.744-23.136
		C345.131,181.218,328.381,165.388,309.205,156.093z"/>
	<path clip-path="url(#SVGID_2_)" fill="#D9D187" d="M188.106,301.818c-11.308-3.444-26.547-3.301-35.722,4.52
		c-6.022,5.134-5.723,12.558-9.721,18.954c-3.954,6.326-9.126,6.076-15.941,7.128c-5.82,0.897-19.257,3.037-22.837,7.702
		c-4.49,5.851-0.342,15.438,5.007,18.824c9.793,6.2,26.678,1.081,35.769-3.678c4.467-2.339,7.356-6.989,11.937-8.796
		c5.823-2.297,12.607,0.449,18.349,1.093c8.252,0.925,18.989-0.4,25.798-5.499C214.53,331.745,201.669,305.95,188.106,301.818z"/>
	<path clip-path="url(#SVGID_2_)" fill="#D9D187" d="M399.803,301.603c-9.688-3.587-26.404-8.884-37.157-6.897
		c-22.327,4.125-19.645,40.733-20.19,56.556c-0.634,18.341-7.454,27.271-24.034,33.705c-27.363,10.618-58.437,7.22-85.552,19.132
		c-11.695,5.139-28.96,11.766-30.481,26.345c-1.518,14.546,6.348,23.407,17.445,31.419c9.474,6.84,18.156,9.938,29.551,12.612
		c4.511,1.058,12.111,3.558,16.843,2.062c8.868-2.802,11.679-16.743,16.637-23.655c9.014-12.566,19.536-23.923,34.921-27.918
		c18.987-4.932,26.982,11.253,38.043,24.413c6.35,7.556,25.369,17.601,34.94,9.822c12.934-10.513-10.465-29.971-15.967-37.979
		c-3.588-5.223-4.986-11.52,1.963-14.089c7.133-2.637,16.805,3.446,23.074,5.873c7.245,2.806,14.992,6.691,23.037,5.338
		c9.582-1.611,16.588-13.124,13.926-22.842c-4.542-16.579-26.879-20.279-36.367-32.825c-4.57-6.043-7.681-11.704,1.951-12.172
		c8.596-0.417,17.426,4.977,24.916,8.64c9.016,4.41,16.168,7.149,26.305,7.362c13.091,0.274,19.455-2.021,21.092-15.159
		c1.076-8.648-0.102-12.962-2.957-21.012c-1.913-5.396-4.287-11.797-9.498-15.033c-3.223-2.002-13.293-4.221-16.988-2.372
		c-4.004,2.004-2.239,6.479-7.303,7.433c-5.002,0.943-7.232-3.335-10.439-6.047C419.66,307.676,409.243,305.099,399.803,301.603z"/>
	<path clip-path="url(#SVGID_2_)" fill="#4B5B41" d="M240.158,86.673c-9.049,5.528-20.757,18.876-22.49,29.842
		c-3.312,20.954,32.775,30.964,5.325,48.891c-21.531,14.062-49.454,9.082-69.482,24.626c-2.934,2.277-12.304,6.978-12.761,11.357
		c-0.562,5.386,14.089,7.003,17.534,7.56c21.875,3.54,41.442,4.972,60.645,17.124c10.768,6.813,14.141,6.899,25.424-4.419
		c6.991-7.014,5.044-9.696,6.077-18.447c0.65-5.515,0.652-7.504,6.832-9.376c10.845-3.285,23.627,0.962,34.15,3.089
		c5.128,1.037,14.301,3.36,18.658-1.048c4.408-4.458,1.726-14.09-0.875-19.01c-6.403-12.117-23.184-15.581-28.635-27.725
		c-6.525-14.533,10.729-14.623,18.938-20.25c6.508-4.461,1.463-9.236,3.219-14.108c2.539-7.043,17.438-9.27,18.018-19.827
		c0.531-9.656-14.119-20.215-21.746-23.662c-10.382-4.689-10.708,2.543-16.321,7.91c-5.815,5.56-11.667,2.45-18.656,2.096
		C255.853,80.885,247.173,82.388,240.158,86.673z"/>
	<path clip-path="url(#SVGID_2_)" fill="#8C9557" d="M374.669,157.287c-6.837,3.725-11.85,13.001-15.923,19.195
		c-5.293,8.047-7.928,16.691-6.405,26.351c1.553,9.855,5.05,19.275-2.172,27.808c-8.934,10.555-25.984,8.4-38.228,10.729
		c-8.391,1.597-40.782,16.484-21.743,26.146c10.387,5.271,22.291,4.702,32.551,11.095c6.498,4.049,5.254,8.163,1.979,15.088
		c-5.268,11.135-14.025,15.307-24.495,20.529c-11.558,5.765-22.291,15.529-32.297,23.604c-9.048,7.301-21.269,14.209-23.731,26.689
		c-2.142,10.854,3.933,13.455,14.074,14.335c6.177,0.535,8.871-0.28,13.893-3.282c3.389-2.027,7.581-4.167,11.603-3.921
		c4.395,10.473,6.833,21.876,5.007,33.385c-2.803,17.651-11.838,33.42-16.176,50.592c-1.003,3.971-3.765,9.292-0.504,12.685
		c3.874,4.028,14.874,2.54,18.354-1.097c5.256-5.494,4.979-14.642,6.069-21.815c1.137-7.48,4.764-19.752,13.099-22.474
		c7.843-2.56,23.253,3.454,24.678-9.401c0.736-6.628-4.52-17.025,4.714-19.902c6.031-1.879,11.755,0.606,17.667-3.86
		c4.367-3.301,8.844-10.495,8.099-16.065c-1.477-11.022-18.135-11.377-14.683-24.512c2.081-7.914,11.875-14.528,17.898-19.432
		c9.818-7.992,22.955-15.704,27.67-28.365c1.524-4.096-0.874-11.306,1.086-14.832c3.204-5.766,13.523-3.024,18.267-1.245
		c11.8,4.428,22.187,9.536,33.007,0.727c6.473-5.271,8.513-14.066,12.43-21.185c2.371-4.307,6.957-10.33,7.117-15.504
		c0.192-6.242-6.059-5.979-9.537-10.197c-9.203-11.157,7.555-18.544,12.449-26.935c8.791-15.071,6.455-30.088,1.165-46.115
		c-2.946-8.924-11.421-33.125-26.499-23.964c-4.891,2.972-5.205,10.244-11.093,12.768
		C415.018,163.068,393.076,147.255,374.669,157.287z"/>
	<path clip-path="url(#SVGID_2_)" fill="#D9D187" d="M215.966,378.389c-7.214,3.881-16.176,10.623-22.052,16.308
		c-4.881,4.721-8.838,9.97-6.549,16.642c2.688,7.834,13.872,15.092,9.878,24.37c-1.987,4.617-7.974,7.209-12.249,9.25
		c-8.702,4.154-18.314,7.032-27.294,10.597c-8.984,3.564-22.784,5.695-29.127,13.416c-3.262,3.971-6.22,12.789-1.335,16.652
		c7.557,5.978,22.228,0.336,29.63-2.721c8.65-3.571,15.972-7.116,22.924,0.945c8.426,9.77,29.238,17.994,34.777,1.667
		c2.565-7.562,4.911-15.876,8.913-22.825c3.668-6.367,10.165-10.55,15.705-15.24c6.494-5.501,14.725-9.187,20.785-15.318
		c5.619-5.688,4.322-13.256,5.534-20.805c1.419-8.833,6.347-11.488,13.983-14.662c4.8-1.994,10.31-3.793,14.197-7.4
		c5.09-4.723,6.579-12.094,8.998-18.382c4.254-11.056,16.722-28.411,11.828-41.067c-4.122-10.662-24.072-15.596-32.51-7.798
		c-7.51,6.94-5.301,19.011-5.301,28.147c0,7.018-0.338,11.648-4.145,17.691c-4.303,6.829-11.72,11.084-19.246,6.999
		C242.631,369.058,226.338,372.811,215.966,378.389z"/>
	<path clip-path="url(#SVGID_2_)" fill="#D9D187" d="M364.681,322.65c-9.385-3.859-15.749-10.182-20.77-19.067
		c-4.89-8.653-5.77-16.149-5.731-25.865c0.043-11.37-2.353-26.457,5.387-36.073c11.699-14.537,35.922-7.802,50.422-18.57
		c5.38-3.994,5.688-7.746,3.998-14.145c-1.474-5.579-4.585-10.234-7.67-15.001c-1.248-1.929-4.545-5.603-4.332-8.278
		c0.75-9.385,30.627-3.825,36.238-2.877c13.527,2.285,28.534,8.079,30.486,23.739c0.956,7.68-6.089,11.536-6.227,18.896
		c-0.259,13.967,19.443,11.402,28.075,15.42c5.642,2.625,12.609,8.473,11.353,15.268c-1.003,5.424-7.279,8.114-11.574,10.054
		c-11.842,5.347-23.71,5.65-36.17,8.244c-3.72,0.774-21.929,4.601-20.372,10.984c1.01,4.14,13.875,9.079,16.793,10.505
		c12.287,6.005,24.86,11.123,35.977,19.266c4.536,3.321,18.771,11.099,18.081,18.18c-0.79,8.094-14.803,10.868-20.985,10.488
		c-9.05-0.555-15.688-3.981-22.413-9.88c-5.624-4.934-8.812-11.169-17.093-12.557c-14.225-2.383-10.102,11.037-5.287,18.666
		c4.145,6.566,16.521,19.521,5.563,26.172c-3.99,2.422-11.476,2.559-14.86-1.358c-2.659-3.076-1.862-6.959-1.862-11.087
		c0-9.149-0.552-15.482-8.141-21.099c-5.35-3.958-13.131-2.379-19.354-3.461C377.285,328.007,371.133,325.304,364.681,322.65z"/>
	<path clip-path="url(#SVGID_2_)" fill="#8C9557" d="M91.755,178.716c-7.063,7.784-9.936,16.142-8.54,26.195
		c0.846,6.093,2.2,12.152-2.528,16.794c-11.347,11.138-30.029,11.062-44.375,15.543c-11.624,3.631-35.714,22.761-23.384,36.196
		c6.642,7.237,20.014,10.37,28.425,5.178c5.046-3.114,7.281-8.691,11.624-12.415c7.145-6.125,22.046-7.264,30.623-4.092
		c16.966,6.274,22.322,27.378,40.489,33.789c14.961,5.28,47.521-7.171,46.771-26.126c-0.455-11.518-9.917-20.394-12.073-31.416
		c-0.543-2.776-1.56-2.754-0.132-5.373c3.258-5.977,19.438-8.302,24.911-11.177c13.939-7.325,18.02-21.238,18.943-36.051
		c0.609-9.761-4.432-14.085-12.631-17.915c-6.666-3.113-6.454-7.792-5.162-15.036c2.687-15.062,8.067-30.207-1.561-44.265
		c-3.395-4.957-6.664-8.116-12.266-10.037c-5.463-1.874-16.086-4.066-21.841-3.186c-6.49,0.994-8.1,11.979-7.355,18.225
		c1.144,9.599,25.645,32.283,1.698,31.022c-8.766-0.461-32.005-7.077-31.678,8.764c0.13,6.214,14.291,15.231,6.555,19.22
		c-3.217,1.66-9.843-0.71-13.44-0.4C99.579,172.608,95.307,174.802,91.755,178.716z"/>
	<path clip-path="url(#SVGID_2_)" fill="#D9D187" d="M227.987,287.545c-6.85,0-13.75-0.283-20.592-0.013
		c-10.932,0.432-15.252,4.348-24.139,9.766c-5.463,3.33-10.398,4.968-17.001,4.12c-9.212-1.182-10.033-5.479-15.951-10.986
		c-10.801-10.049-26.353-6.453-38.324-1.064c-5.615,2.527-14.098,5.562-12.644,13.191c6.605,2.689,12.792,1.204,19.652,2.723
		c3.925,0.869,7.228,1.796,7.179,6.569c-0.089,8.668-16.046,7.7-17.765,18.227c-1.93,11.825,14.285,20.851,21.755,10.654
		c3.292-4.495,2.469-8.974,7.487-12.507c5.924-4.173,10.483-1.856,16.621-0.576c5.909,1.231,7.889,0.066,12.808-3.168
		c6.377-4.194,11.361-6.579,18.873-8.326c5.589-1.299,10.624-3.258,16.37-3.647c6.167-0.417,12.646,0.865,18.753,0.068
		c7.791-1.016,42.106-19.217,21.371-25.046C238.374,286.387,232.24,287.545,227.987,287.545L227.987,287.545z"/>
	<path clip-path="url(#SVGID_2_)" fill="#1E2E22" d="M145.419,268.918c0.471,7.142,31.901,13.146,5.646,19.655
		c-2.567,0.637-13.835,1.944-10.572,7.816c2.362,4.252,15.548-1.494,19.212-1.375c6.28,0.204,16.341,0.207,18.157-7.038
		c0.515-2.056,0.441-4.12-0.32-6.115c-6.725-17.574,9.643-1.817,11.246-13.318c0.525-3.773-14.123-5.075-12.578-7.142
		c1.247-1.668,20.972-13.5,4.164-12.452C170.118,249.588,144.528,255.429,145.419,268.918L145.419,268.918z"/>
	<path clip-path="url(#SVGID_2_)" fill="#8C9557" d="M191.682,383.115c-16.672-3.469-39.351-3.124-25.018,19.784
		c13.726,21.938-39.973,16.274-49.297,16.783c-15.415,0.844-52.119,20.738-19.678,31.271c12.316,3.997,21.497-6.16,32.52-9.598
		c15.843-4.94,22.071,8.202,36.465,7.985c14.17-0.212,7.584-26.368,31.355-26.014c8.412,0.123,23.158,4.777,29.288-4.07
		c4.09-5.908,27.699-19.314,21.66-25.287c-6.674-6.599-17.059,6.976-25.325,5.715C211.33,397.805,203.826,385.644,191.682,383.115
		L191.682,383.115z"/>
	<path clip-path="url(#SVGID_2_)" fill="#8C9557" d="M223.473,269.938c0.512,17.165-28.885,5.097-38.085,10.495
		c-4.214,15.621,51.787,11.182,52.729,9.345c2.464-4.806,24.225-2.286,14.811-12.179
		C250.639,275.193,223.311,264.502,223.473,269.938C223.804,281.055,223.356,266.02,223.473,269.938z"/>
	<path clip-path="url(#SVGID_2_)" fill="#D9D187" d="M153.313,25.119c-6.876-1.031-13.675-2.859-20.575-3.658
		c-12.541-1.452-27.917-2.495-37.536,6.667c-3.461,3.297-7.668,7.479-9.075,12.418c-1.279,4.489-0.011,6.465-2.939,10.517
		c-5.927,8.202-15.401,13.507-23.395,19.419c-2.235,1.653-6.395,3.829-6.987,6.852c-1.246,6.356,12.97,11.269,18.187,12.343
		c7.94,1.633,15.35,0.439,23.074,3.204c4.234,1.516,14.576,6.817,13.637,12.423c-0.68,4.059-8.805,10.223-11.851,12.403
		c-6.02,4.311-14.161,5.935-21.242,8.447c-6.233,2.211-24,5.723-24.94,14.848c-0.902,8.748,19.127,13.523,25.949,13.023
		c7.235-0.529,8.589-6.475,13.637-10.424c2.223-1.739,4.05-3.04,7.085-2.523c5.141,0.873,2.78,3.507,4.964,6.265
		c4.667,5.895,14.298,2.08,15.302-4.251c0.81-5.106-1.431-10.075,4.346-12.595c4.008-1.749,9.769-0.598,14.066-0.835
		c6.258-0.344,12.109-2.754,17.59-5.978c6.511-3.83,9.508-8.177,10.733-15.395c1.058-6.229-4.143-10.465,2.195-14.956
		c9.442-6.691,19.839-5.294,30.427-8.677c7.472-2.387,12.529-4.178,15.716-10.72c1.436-2.949,4.583-9.077,1.417-12.306
		c-3.921-3.999-22.488,1.333-18.824-10.929c1.439-4.815,6.254-4.81,6.877-10.554c0.452-4.167-0.261-8.377-3.981-10.854
		c-6.176-4.112-14.958-1.726-21.821-1.774C168.114,27.468,160.466,26.19,153.313,25.119z"/>
	<path clip-path="url(#SVGID_2_)" fill="#1E2E22" d="M119.801,16.75c-10.028,6.048-11.353,11.885-14.904,21.917
		c-7.116,20.1-39.062,9.039-55.458,12.267C41.78,52.44,31.96,56.321,27.299,62.916c-7.001,9.906,0.372,11.901,10.508,14.052
		c6.081,1.291,7.404-1.146,12.598-3.334c4.818-2.03,9.562-2.247,14.692-1.987c0.344,8.326,1.849,9.776,11.451,9.396
		c9.498-0.375,13.976-9.599,22.433-13.515c10.102-4.677,23.077-5.875,33.858-9.025c5.398-1.577,10.048-3.847,12.998-7.839
		c0.665-0.899-0.58-3.028,0.073-4.051c1.197-1.876,6.468-4.116,8.478-4.788c7.728-2.581,31.114,3.217,32.974-8.794
		c1.225-7.903-7.985-8.276-13.67-8.334c-3.787-0.04-8.963,0.928-12.31-0.727c-2.856-1.412-4.414-4.662-7.198-6.009
		c-2.65-1.283-5.263-0.905-8.177-1.361C136.958,15.184,128.462,11.526,119.801,16.75z"/>
	<path clip-path="url(#SVGID_2_)" fill="#8C9557" d="M230.567,44.737c5.849-3.22,11.105,0.276,16.933,1.652
		c7.064,1.668,15.863-0.429,21.084-5.703c5.83-5.891,4.865-17.268,10.096-24.062c7.596-9.868,22.672-3.968,27.943,5.789
		c1.346,2.492,0.734,5.962,1.923,8.507c2.853,6.106,8.812,6.427,14.522,8.986c8.729,3.911,30.06,13.952,31.103,24.831
		c1.332,13.89-11.951,27.935-25.506,26.388c-10.091-1.151-16.642-9.566-26.916-10.207c-7.663-0.478-12.513,2.722-12.86,10.183
		c-0.408,8.8-3.494,13.816-8.188,21.45c-7.156,11.638-19.269,18.768-30.755,26.681c-10.146,6.991-29.17,8.676-39.987,2.219
		c-10.54-6.29-15.646-22.738,0.731-24.091c8.264-0.683,23.693,2.477,29.837-3.898c2.173-2.256,1.769-3.893,1.687-7.263
		c-3.119-0.813-6.051-2.424-8.966-3.399c-2.531-3.665-0.015-5.857,2.144-8.378c1.68-1.961,2.146-0.639,3.123-3.32
		c2.31-6.339-4.283-7.387-7.834-10.804c-3.145-3.025-4.822-6.665-6.039-10.873C222.279,61.257,221.979,49.464,230.567,44.737z"/>
	<path clip-path="url(#SVGID_2_)" fill="#D9D187" d="M331.556,93.642c13.629,0.556,25.723,14.228,40.737,15.505
		c15.109,1.285,22.682-11.396,37.756-10.394c43.705,2.91-0.043,12.9,2.748,18.038c2.528,0.183,25.362,3.774,12.863,9.11
		c-11.557,4.934-13.59,6.208-3.013,15.599c14.531,12.906-0.521,18.826-10.101,26.307c-9.727,7.58-14.485,19.017-19.354,29.924
		c-6.572,14.72-22.717,8.206-12.943-5.132c6.812-9.297,17.394-21.532,4.303-31.506c-14.364-10.944-30.845,4.474-44.469-7.832
		c-7.48-6.757-5.292-25.484-20.174-20.545c-14.419,4.786-21.562,9.838-34.224-2.94c-6.718-6.778-62.5-58.363-38.746-61.942
		c13.243-1.996,11.036,12.674,21.591,14.35c6.946,1.103,28.742-18.646,24.373,2.382c-0.532,2.566-11.223,27.797-1.896,23.93
		C305.982,102.287,313.142,92.892,331.556,93.642L331.556,93.642z"/>
	<path clip-path="url(#SVGID_2_)" fill="#D9D187" d="M179.92,373.057c-12.355,7.029-22.982,18.001-34.672,26.11
		c-8.412,5.835-12.562,2.077-21.622,1.977c-3.519-0.038-5.486-0.125-5.482,3.9c0.012,12.608,22.951,11.095,29.791,7.827
		c2.987-1.427,6.954-4.071,10.654-2.247c3.619,1.784,2.062,3.731,7.167,4.45c5.883,0.828,8.223-3.844,11.923-7.72
		c3.301-3.457,4.963-6.044,9.448-8.364c4.529-2.345,7.26-1.11,11.884-2.208c3.865-0.918,7.365-4.157,10.753-5.937
		c7.729-4.062,22.261-3.049,23.093-13.975c1.021-13.426-12.364-5.845-18.917-4.785C202.091,374.001,191.499,366.469,179.92,373.057z
		"/>
	<path clip-path="url(#SVGID_2_)" fill="#1E2E22" d="M93.676,95.6c-1.215,4.194-0.112,5.518-3.377,8.725
		c-4.946,4.856-12.13,5.76-18.753,6.68c-9.103,1.262-26.224-0.601-32.528,7.729c-6.276,8.292,6.076,11.834,12.632,11.665
		c6.365-0.166,11.871-4.205,18.258-2.812c5.992,1.307,9.659,5.126,16.761,4.474c9.295-0.852,2.258-4.974,5.363-10.541
		c2.029-3.636,15.035-3.909,19.042-5.829c5.667-2.717,7.412-3.573,9.215-9.118c1.769-5.437,3.157-7.124,9.36-8.959
		c3.153-0.932,2.923-8.754,1.334-10.676c-4.055-4.904-10.467,0.625-15.359,0.868C106.155,88.276,97.281,83.161,93.676,95.6z"/>
	<path clip-path="url(#SVGID_2_)" fill="#1E2E22" d="M379.103,234.333c-3.21,16.95-18.48,11.542-28.77,20.386
		c-7.194,6.182-4.77,27.644,7.273,26.063c4.861-0.639,8.523-8.335,11.593-11.091c5.367-4.82,10.537-0.694,16.713-5.247
		c5.589-4.12,6.307-6.779,6.882-12.985c1.357-14.648,35.312-18.329,21.813-32.508c-5.496-5.774-11.057-5.717-18.433-3.913
		C384.743,217.833,381.207,223.223,379.103,234.333z"/>
	<path clip-path="url(#SVGID_2_)" fill="#1E2E22" d="M283.172,360.418c-3.652,4.232-3.043,12.8-2.645,17.904
		c0.614,7.84,2.943,9.628-5.261,13.678c-4.946,2.441-17.792,4.72-20.806,9.885c-7.365,12.625,17.498,17.049,24.396,17.174
		c5.467,0.1,9.92-0.023,11.885-6.061c0.809-2.486-0.613-5.83,0.282-8.119c2.537-6.486,15.177-3.922,14.335-12.082
		c-0.559-5.418-14.463-8.643-11.01-14.75c3.748-6.631,25.965,3.223,23.607-11.662c-1.012-6.395-7.49-5.979-12.082-6.277
		c-0.535-0.034-2.993-3.141-4.006-3.57c-1.961-0.83-3.988-0.501-6.072-0.359C291.799,356.447,285.975,357.17,283.172,360.418z"/>
	<path clip-path="url(#SVGID_2_)" fill="#8C9557" d="M97.094,305.193c-8.628,0.272-14.595,4.399-19.78,10.897
		c-3.698,4.633-7.693,9.28-7.682,15.457c0.006,3.745,1.435,7.27,2.352,10.839c1.543,6.01,2.171,12.235,2.895,18.385
		c0.647,5.509,1.17,10.352-2.64,14.797c-4.829,5.635-13.22,8.39-19.757,11.331c-11.838,5.328-25.782,9.406-36.757,16.162
		c-12.156,7.481-10.639,29.852,5.297,30.968c7.694,0.538,16.777-5.325,22.7,2.284c4.466,5.738,4.764,14.351,4.054,21.271
		c-0.855,8.339-5.12,16.518-0.069,24.368c4.854,7.544,16.27,7.301,23.823,3.999c5.453-2.385,8.041-10.793,9.725-16.137
		c2.52-8.001,0.326-15.251-2.518-22.69c-2.479-6.485-9.55-20.512-6.069-27.677c6.316-12.998,19.92,6.119,22.281,11.637
		c1.615,3.776,2.07,6.979,5.666,8.633c2.186,1.006,6.735,1.509,8.307-0.779c1.041-1.516,0.258-4.343,0.408-6.041
		c0.322-3.627,1.397-7.225,0.61-10.918c-1.356-6.37-6.682-11.078-8.906-17.132c-1.128-3.069-3.321-9.333-0.919-12.479
		c2.533-3.318,12.129,1.146,16.493,0.273c6.018-1.201,11.465-9.804,9.993-16.168c-1.663-7.188-9.486-11.283-16.492-10.101
		c-4.566,0.771-8.42,2.945-12.224-1.462c-4.877-5.652,0.333-10.926,6.34-11.897c5.603-0.907,11.666,0.875,17.287,0.072
		c5.126-0.732,10.676-3.733,14.875-6.617c4.713-3.235,10.43-6.555,11.889-11.995c1.006-3.753,1.667-8.715-2.36-10.841
		c-4.531-2.392-28.199,5.638-25.477-5.738c0.748-3.124,4.074-4.639,2.137-8.428c-1.636-3.199-7.358-2.62-10.387-3.301
		C107.039,305.008,102.37,305.026,97.094,305.193z"/>
	<path clip-path="url(#SVGID_2_)" fill="#1E2E22" d="M-7.131-15.367c-2.807-4.881-8.328-21.943,1.35-23.718
		c9.126-1.674,8.699,12.57,9.302,17.75C5.036-8.322,18.5-7.464,29.976-6.511C46.42-5.146,78.769-0.32,75.153,22.568
		c-1.304,8.256-9.159,14.093-18.461,10.051c-7.593-3.3-8.85-18.789-17.74-18.521c-1.244,0.038-2.514-0.166-3.717,0.117
		c-3.048,9.256,4.821,29.13-10.746,26.839c-4.175-0.614-10.231-2.442-9.43-8.473c0.626-4.711,7.17-5.623,11.452-6.275
		c0.105-2.224,1.199-8.497-0.43-10.126c-2.168-2.169-7.503,0.494-10.194-1.316C4.854,7.437,23.276,8.056,28.07,7.817
		c4.259-0.212-4.093-5.317-3.769-5.145c-3.063-1.629-9.147-0.919-12.8-2.313C3.798-2.581-3.011-8.201-7.131-15.367z"/>
	<path clip-path="url(#SVGID_2_)" fill="#1E2E22" d="M-7.131,484.633c-2.807-4.881-8.328-21.943,1.35-23.718
		c9.126-1.674,8.699,12.57,9.302,17.75c1.515,13.013,14.979,13.87,26.455,14.823c16.445,1.365,48.793,6.191,45.178,29.08
		c-1.304,8.256-9.159,14.094-18.461,10.051c-7.593-3.301-8.85-18.789-17.74-18.521c-1.244,0.038-2.514-0.166-3.717,0.116
		c-3.048,9.256,4.821,29.131-10.746,26.84c-4.175-0.615-10.231-2.443-9.43-8.473c0.626-4.711,7.17-5.623,11.452-6.275
		c0.105-2.225,1.199-8.498-0.43-10.127c-2.168-2.168-7.503,0.494-10.194-1.316c-11.034-7.426,7.389-6.807,12.183-7.046
		c4.259-0.212-4.093-5.317-3.769-5.146c-3.063-1.629-9.147-0.918-12.8-2.312C3.798,497.419-3.011,491.799-7.131,484.633z"/>
	<path clip-path="url(#SVGID_2_)" fill="#1E2E22" d="M492.869,484.633c-2.807-4.881-8.328-21.943,1.35-23.718
		c9.127-1.674,8.699,12.57,9.303,17.75c1.515,13.013,14.979,13.87,26.454,14.823c16.444,1.365,48.793,6.191,45.178,29.08
		c-1.304,8.256-9.159,14.094-18.461,10.051c-7.593-3.301-8.85-18.789-17.74-18.521c-1.244,0.038-2.514-0.166-3.717,0.116
		c-3.048,9.256,4.821,29.131-10.746,26.84c-4.175-0.615-10.231-2.443-9.43-8.473c0.626-4.711,7.171-5.623,11.452-6.275
		c0.105-2.225,1.199-8.498-0.43-10.127c-2.169-2.168-7.504,0.494-10.195-1.316c-11.033-7.426,7.39-6.807,12.184-7.046
		c4.259-0.212-4.093-5.317-3.769-5.146c-3.063-1.629-9.147-0.918-12.8-2.312C503.799,497.419,496.988,491.799,492.869,484.633z"/>
	<path clip-path="url(#SVGID_2_)" fill="#1E2E22" d="M302.248,468.013c14.814-3.623,23.165,6.983,35.167,13.304
		c11.745,6.185,26.141,4.743,35.188-4.998c8.225-8.855,16.847-18.821,30.753-15.526c8.827,2.092,19.933,10.303,21.368,19.507
		c1.274,8.169-2.044,10.229-9.094,13.685c-8.019,3.93-17.032,5.63-25.278,8.614c-9.085,3.288-10.995,9.271-12.563,18.295
		c-0.921,5.306-1.887,11.971-6.209,15.131c-6.954,5.086-20.965,3.344-28.149-0.072c-9.115-4.336-13.184-10.282-16.451-19.122
		c-2.611-7.065-6.047-12.236-13.463-14.384c-7.262-2.104-10.233-1.527-14.956,4.512c-5.663,7.24-6.77,10.883-16.287,12.109
		c-6.767,0.872-16.594-1.85-17.614-9.77C262.775,494.701,289.893,471.035,302.248,468.013z"/>
	<path clip-path="url(#SVGID_2_)" fill="#1E2E22" d="M302.248-31.987c14.814-3.623,23.165,6.983,35.167,13.304
		c11.745,6.185,26.141,4.743,35.188-4.998c8.225-8.855,16.847-18.821,30.753-15.526c8.827,2.092,19.933,10.303,21.368,19.507
		c1.274,8.169-2.044,10.229-9.094,13.685c-8.019,3.93-17.032,5.63-25.278,8.614c-9.085,3.288-10.995,9.271-12.563,18.295
		c-0.921,5.306-1.887,11.971-6.209,15.131c-6.954,5.086-20.965,3.344-28.149-0.072c-9.115-4.336-13.184-10.282-16.451-19.122
		c-2.611-7.065-6.047-12.236-13.463-14.384c-7.262-2.104-10.233-1.527-14.956,4.512c-5.663,7.24-6.77,10.883-16.287,12.109
		c-6.767,0.872-16.594-1.85-17.614-9.77C262.775-5.299,289.893-28.965,302.248-31.987z"/>
	<path clip-path="url(#SVGID_2_)" fill="#D9D187" d="M-35.33,309.678c-2.453,18.454,12.928,30.227,22.847,44.226
		c8.725,12.312,18.06,20.047,33.531,20.193c8.095,0.076,15.23-0.009,19.179-6.984c4.913-8.677,2.815-12.701-3.261-19.246
		c-4.535-4.886-11.889-8.47-15.674-13.771c-8.479-11.873,18.887-14.015,23.872-19.826c11.148-12.996-8.306-22.789-19.192-21.766
		c-6.357,0.599-17.279,1.062-9.55-8.285c3.652-4.417,7.061-4.621,9.377-10.332c1.897-4.677,3.769-9.391,0.595-13.985
		c-3.447-4.99-9.723-6.3-15.288-6.407c-3.848-0.074-12.112-1.332-15.46,0.561c-4.536,2.564-5.485,8.312-7.689,12.55
		c-2.22,4.271-5.834,7.442-8.688,11.425C-27.554,287.551-33.759,297.854-35.33,309.678z"/>
	<path clip-path="url(#SVGID_2_)" fill="#D9D187" d="M464.67,309.678c-2.453,18.454,12.928,30.227,22.847,44.226
		c8.726,12.312,18.06,20.047,33.531,20.193c8.095,0.076,15.229-0.009,19.179-6.984c4.912-8.677,2.814-12.701-3.261-19.246
		c-4.534-4.886-11.889-8.47-15.674-13.771c-8.479-11.873,18.887-14.015,23.872-19.826c11.147-12.996-8.307-22.789-19.193-21.766
		c-6.356,0.599-17.278,1.062-9.549-8.285c3.651-4.417,7.061-4.621,9.377-10.332c1.896-4.677,3.768-9.391,0.595-13.985
		c-3.446-4.99-9.724-6.3-15.288-6.407c-3.848-0.074-12.111-1.332-15.459,0.561c-4.536,2.564-5.486,8.312-7.689,12.55
		c-2.221,4.271-5.834,7.442-8.688,11.425C472.445,287.551,466.241,297.854,464.67,309.678z"/>
	<path clip-path="url(#SVGID_2_)" fill="#1E2E22" d="M438.943,308.909c-3.265,11.056,10.285,13.533,18.29,11.104
		c12.13-3.681,32.156-12.342,30.036-28.567c-0.672-5.153-23.302-2.148-26.984-1.332C450.95,292.182,441.699,299.583,438.943,308.909
		z"/>
	<path clip-path="url(#SVGID_2_)" fill="#8C9557" d="M227.273,202.231c-3.265,11.056,10.285,13.533,18.29,11.104
		c12.13-3.681,32.156-12.342,30.036-28.567c-0.672-5.153-23.302-2.148-26.984-1.332C239.28,185.504,230.029,192.905,227.273,202.231
		z"/>
	<path clip-path="url(#SVGID_2_)" fill="#4B5B41" d="M440.273,449.231c-3.265,11.056,10.285,13.533,18.29,11.104
		c12.13-3.681,32.156-12.342,30.036-28.567c-0.672-5.153-23.302-2.148-26.984-1.332C452.28,432.504,443.029,439.905,440.273,449.231
		z"/>
	<path clip-path="url(#SVGID_2_)" fill="#1E2E22" d="M328.687,198.926c-2.257,7.64,7.107,9.352,12.639,7.673
		c8.382-2.544,22.221-8.528,20.756-19.741c-0.464-3.562-16.103-1.484-18.647-0.92C336.983,187.366,330.591,192.48,328.687,198.926z"
		/>
	<path clip-path="url(#SVGID_2_)" fill="#1E2E22" d="M436.916,361.925c5.228,2.118,8.645,5.634,14.939,4.71
		c7.081-1.039,12.554-6.698,20.234-5.202c4.795,0.934,9.128,3.864,7.224,9.387c-2.166,6.278-10.56,6.815-15.923,7.492
		c-8.719,1.101-19.259,0.267-17.092,10.265c0.478,2.208,3.515,4.983,1.213,7.614c-1.826,2.087-9.966,1.524-12.216,0.872
		c-6.529-1.894-9.287-11.229-16.727-9.615c-10.956,2.376,0.878,17.731-2.896,24.519c-4.692,8.438-19.787,0.728-23.159-5.376
		c-7.068-12.798,0.302-21.128,9.912-28.961C412.521,369.404,422.159,355.949,436.916,361.925z"/>
	<path clip-path="url(#SVGID_2_)" fill="#1E2E22" d="M58.732,234.218c3.545,8.141,11.498,15.991,10.557,25.213
		c-0.965,9.468-6.928,13.183-14.233,17.287c-10.042,5.643-29.456,17.167-16.833,30.527c9.705,10.272,17.532,6.391,23.099-3.81
		c2.598-4.759,4.912-13.486,10.384-15.414c3.771-1.328,6.877,1.038,10.897-0.84c6.154-2.874,9.26-9.033,10.46-15.008
		c0.854-4.249,0.649-7.545-0.338-11.531c-1.349-5.443-3.046-4.682-5.621-8.333c-2.857-4.053-8.879-11.37-2.758-15.92
		c2.011-1.494,5.354-0.037,7.398-1.815c1.246-1.085,1.564-3.822,2.514-5.205c4.539-6.617,5.158-7.569,14.493-4.208
		c7.992,2.877,16.787,11.833,25.501,9.254c12.659-3.747,2.213-18.959-4.588-23.782c-6.814-4.833-16.913-1.461-24.427-0.579
		c-8.302,0.976-12.644-3.64-20.815-4.573C70.082,203.843,52.131,219.058,58.732,234.218z"/>
	<path clip-path="url(#SVGID_2_)" fill="#8C9557" d="M227.854,306.152c-14.083,5.942-30.051,17.049-40.188,28.699
		c-3.59,4.126-11.942,12.584-7.856,18.682c2.928,4.371,14.143,6.111,18.848,4.553c9.449-3.13,10.624-12.474,18.02-16.821
		c11.983-7.045,22.102,0.381,32.915-11.94c4.939-5.628,7.652-10.254,15.013-13.198c6.287-2.516,13.243-1.419,19.334-3.502
		c19.031-6.507-6.404-17.057-13.718-18.125C254.517,292.203,242.047,300.164,227.854,306.152z"/>
	<path clip-path="url(#SVGID_2_)" fill="#4B5B41" d="M366.914,304.206c-0.56,2.57,0.683,5.807-0.036,8.238
		c-1.483,5.016-6.097,6.833-9.817,9.754c-6.06,4.757-9.333,10.941-1.452,15.418c2.759,1.566,7.771,2.398,10.903,2.29
		c8.77-0.302,8.327-9.91,9.398-17.496c1.937-13.709,13.312-5.723,23.069-10.034c4.704-2.078,9.496-7.939,10.604-12.972
		c1.842-8.358-3.527-9.734-10.687-11.194C386.983,285.78,369.968,290.181,366.914,304.206z"/>
	<path clip-path="url(#SVGID_2_)" fill="#D9D187" d="M388.043,32.363c-2.92,6.045-3.775,12.907-6.098,19.085
		c-1.647,4.387-8.388,8.415-8.759,12.67c-0.369,4.251,4.717,5.701,7.983,5.429c3.774-0.315,10.903-2.23,13.422-5.379
		c2.615-3.27,0.459-5.994,0.566-9.805c0.216-7.568,4.541-7.638,11.06-9.667c3.521-1.096,8.059-3.423,8.03-7.416
		c-0.014-2.074-2.876-4.404-2.687-6.455c0.286-3.101,5.459-4.546,7.857-5.549c4.007-1.675,9.842-5.037,11.472-9.391
		c1.332-3.561-0.771-6.831-4.569-7.657c-6.542-1.419-15.385,4.665-20.792,7.861C398.759,20.092,391.54,25.121,388.043,32.363z"/>
	<path clip-path="url(#SVGID_2_)" fill="#4B5B41" d="M32.244,153.766c-4.639,4.074-7.786,9.541-11.957,13.932
		c-2.961,3.117-10.184,4.193-11.997,7.638c-1.812,3.44,2.063,6.396,4.974,7.284c3.363,1.027,10.181,1.857,13.456,0.076
		c3.402-1.851,2.5-4.873,3.932-8.035c2.844-6.277,6.595-4.857,12.925-4.33c3.42,0.283,8.147-0.118,9.524-3.479
		c0.716-1.745-0.932-4.68-0.049-6.336c1.336-2.504,6.303-1.947,8.721-1.969c4.041-0.036,10.252-0.863,13.185-3.959
		c2.399-2.533,1.734-5.996-1.25-7.987c-5.14-3.429-14.897-1.346-20.679-0.512C45.789,147.133,37.801,148.885,32.244,153.766z"/>
	<path clip-path="url(#SVGID_2_)" fill="#4B5B41" d="M364.244,141.766c-4.639,4.074-7.786,9.541-11.957,13.932
		c-2.961,3.117-10.184,4.193-11.997,7.638c-1.812,3.44,2.063,6.396,4.974,7.284c3.363,1.027,10.182,1.857,13.456,0.076
		c3.401-1.851,2.5-4.873,3.932-8.035c2.844-6.277,6.595-4.857,12.925-4.33c3.42,0.283,8.147-0.118,9.525-3.479
		c0.716-1.745-0.933-4.68-0.049-6.336c1.336-2.504,6.303-1.947,8.721-1.969c4.041-0.036,10.252-0.863,13.185-3.959
		c2.399-2.533,1.734-5.996-1.25-7.987c-5.14-3.429-14.897-1.346-20.679-0.512C377.789,135.133,369.801,136.885,364.244,141.766z"/>
	<path clip-path="url(#SVGID_2_)" fill="#D9D187" d="M246.35-10.431C240.352-5.11,236.283,2.027,230.89,7.762
		c-3.829,4.071-13.167,5.477-15.513,9.974c-2.343,4.493,2.667,8.354,6.431,9.514c4.348,1.34,13.164,2.424,17.398,0.099
		c4.399-2.417,3.233-6.364,5.084-10.493c3.677-8.198,8.527-6.343,16.713-5.656c4.422,0.372,10.533-0.153,12.314-4.541
		c0.926-2.28-1.205-6.111-0.062-8.274c1.727-3.27,8.149-2.544,11.275-2.572c5.226-0.046,13.256-1.125,17.049-5.169
		c3.102-3.307,2.242-7.83-1.617-10.43c-6.645-4.477-19.262-1.757-26.738-0.668C263.863-19.094,253.535-16.806,246.35-10.431z"/>
	<path clip-path="url(#SVGID_2_)" fill="#D9D187" d="M246.35,489.568c-5.998,5.321-10.067,12.459-15.459,18.193
		c-3.829,4.071-13.167,5.477-15.513,9.975c-2.343,4.492,2.667,8.354,6.431,9.514c4.348,1.34,13.164,2.424,17.398,0.098
		c4.399-2.416,3.233-6.363,5.084-10.492c3.677-8.197,8.527-6.344,16.713-5.656c4.422,0.371,10.533-0.152,12.314-4.541
		c0.926-2.279-1.205-6.111-0.062-8.274c1.727-3.271,8.149-2.544,11.275-2.572c5.226-0.046,13.256-1.126,17.049-5.169
		c3.102-3.308,2.242-7.83-1.617-10.431c-6.645-4.478-19.262-1.757-26.738-0.669C263.863,480.906,253.535,483.194,246.35,489.568z"/>
	<path clip-path="url(#SVGID_2_)" fill="#1E2E22" d="M351.711,81.991c-0.541,5.556,0.721,6.74-2.855,11.029
		c-4.695,5.63-14.463,8.083-21.14,10.876c-14.831,6.204,1.567,12.084,11.923,14.217c9.736,2.005,10.391-0.751,13.576-7.98
		c7.277-1.375,26.943,11.332,22.236-6.233c-1-3.73-6.387-7.63-5.941-11.669c0.872-7.911,8.444-4.524,13.664-5.517
		c4.358-0.829,9.961-3.269,11.732-6.852c0.631-1.277-0.566-3.46-0.012-4.792c0.844-2.02,2.356-2.431,3.424-4.266
		c1.416-2.434,6.785-6.857,1.92-9.987c-3.303-2.125-7.361,1.706-8.206,4.536c-4.828,0.05-1.837-7.333-2.04-10.734
		c-0.254-4.26-9.23,4.462-9.592,4.745c-3.638,2.859-7.677,4.49-11.872,6.331C360.687,69.136,352.66,72.264,351.711,81.991z"/>
	<path clip-path="url(#SVGID_2_)" fill="#1E2E22" d="M491.266,102.454c-7.062-3.73-18.34-12.718-20.062-20.961
		c-1.727-8.26,4.09-16.069,4.167-24.083c0.087-8.979-10.419-17.917-0.452-25.417c2.402-1.808,10.865-5.709,13.895-3.392
		c1.84,1.407,1.582,6.068,1.709,8.694c0.324,6.663-2.004,10.136-3.262,16.034c-1.696,7.952,2.734,9.069,6.979,2.938
		c2.112-3.052,1.23-5.102,7.035-5.32c4.158-0.157,7.492,1.488,8.771,5.276c2.555,7.562-6.223,10.993-6.92,17.675
		c-1.064,10.216,7.357,5.279,13.986,6.436c6.166,1.076,8.742,8.272,9.393,14.132c0.549,4.955,0.795,7.898-3.527,9.403
		C513.219,107.268,500.511,107.336,491.266,102.454z"/>
	<path clip-path="url(#SVGID_2_)" fill="#1E2E22" d="M-8.734,102.454c-7.062-3.73-18.34-12.718-20.062-20.961
		c-1.727-8.26,4.09-16.069,4.167-24.083c0.087-8.979-10.419-17.917-0.452-25.417c2.402-1.808,10.865-5.709,13.895-3.392
		c1.84,1.407,1.582,6.068,1.709,8.694c0.324,6.663-2.004,10.136-3.262,16.034c-1.696,7.952,2.734,9.069,6.979,2.938
		c2.112-3.052,1.23-5.102,7.035-5.32c4.158-0.157,7.492,1.488,8.771,5.276c2.555,7.562-6.223,10.993-6.92,17.675
		c-1.064,10.216,7.357,5.279,13.986,6.436c6.166,1.076,8.742,8.272,9.393,14.132c0.549,4.955,0.795,7.898-3.527,9.403
		C13.219,107.268,0.511,107.336-8.734,102.454z"/>
	<path clip-path="url(#SVGID_2_)" fill="#4B5B41" d="M445.88,32.659c-4.843,4.439-8.129,10.395-12.484,15.179
		c-3.091,3.397-10.633,4.569-12.526,8.322c-1.892,3.75,2.154,6.97,5.193,7.938c3.512,1.118,10.63,2.022,14.05,0.082
		c3.553-2.016,2.61-5.31,4.105-8.754c2.969-6.84,6.886-5.292,13.495-4.719c3.571,0.31,8.507-0.128,9.945-3.789
		c0.748-1.902-0.974-5.099-0.051-6.903c1.395-2.729,6.58-2.123,9.105-2.146c4.22-0.039,10.703-0.939,13.767-4.313
		c2.504-2.759,1.811-6.533-1.305-8.703c-5.367-3.735-15.556-1.466-21.593-0.558C460.022,25.431,451.683,27.34,445.88,32.659z"/>
	<path clip-path="url(#SVGID_2_)" fill="#D9D187" d="M105.488,170.916c-2.161,5.651-7.907,10.173-13.831,9.807
		c-8.94-0.552-34.61-18.417-36.6,1.073c-1.34,13.132,17.6,4.329,24.524,8.722c3.531,2.241,3.418,7.156,7.779,9.223
		c4.868,2.307,13.41,1.363,18.285-0.13c1.269-2.356,3.648-4.305,5.321-6.51c1.78-2.346,2.552-5.864,4.868-8.137
		c5.42-5.317,13.061-7.13,19.049-11.583c6.536-4.859,7.262-10.729,7.116-18.867c-0.091-5.068-1.483-13.415-9.076-9.953
		c-5.016,2.287-3.497,12.391-10.632,11.725c-8.176-0.762-5.283-12.092-8.923-16.551c-3.434-4.208-9.022-4.773-11.151,0.596
		C98.146,150.605,109.225,161.143,105.488,170.916z"/>
	<path clip-path="url(#SVGID_2_)" fill="#D9D187" d="M299.789,275.592c-1.326,3.468-4.852,6.241-8.486,6.017
		c-5.484-0.338-21.234-11.3-22.454,0.658c-0.822,8.058,10.798,2.656,15.046,5.352c2.166,1.375,2.098,4.391,4.773,5.658
		c2.986,1.415,8.227,0.837,11.218-0.079c0.778-1.446,2.237-2.642,3.265-3.995c1.092-1.438,1.565-3.597,2.986-4.992
		c3.326-3.262,8.014-4.374,11.688-7.106c4.01-2.98,4.455-6.582,4.365-11.575c-0.055-3.109-0.91-8.23-5.568-6.106
		c-3.076,1.402-2.145,7.602-6.522,7.193c-5.017-0.467-3.241-7.419-5.475-10.154c-2.106-2.582-5.535-2.928-6.841,0.365
		C295.285,263.131,302.082,269.596,299.789,275.592z"/>
	<path clip-path="url(#SVGID_2_)" fill="#D9D187" d="M196.075,56.216c-5.729-1.638-12.805-4.744-18.199-1.165
		c-5.859,3.888-9.628,18.203-2.003,21.077c7.071,2.665,15.928,0.001,23.393,2.698c1.531,7.483-6.402,10.683-10.322,15.114
		c-2.741,3.098-8.776,14.52-5.88,18.802c2.811,4.156,15.134,1.066,18.785-1.088c4.519-2.666,7.167-7.732,11.536-10.52
		c4.263-2.72,7.455-0.953,12.185-1.928c5.321-1.097,10.288-5.95,13.334-10.391c1.639-2.39,2.603-5.216,4.535-7.542
		c3.186-3.838,7.289-5.403,11.233-8.417c6.796-5.193,10.007-15.156,7.584-23.465c-1.691-5.802-7.165-6.181-11.767-3.425
		c-5.508,3.301-4.532,10.417-9.599,13.46c-4.268,2.563-13.787,2.124-18.5,2.076C213.375,61.411,204.664,58.671,196.075,56.216z"/>
	<path clip-path="url(#SVGID_2_)" fill="#D9D187" d="M179.075,128.216c-5.729-1.638-12.805-4.744-18.199-1.165
		c-5.859,3.888-9.628,18.203-2.003,21.077c7.071,2.665,15.928,0.001,23.393,2.698c1.531,7.483-6.402,10.683-10.322,15.114
		c-2.741,3.098-8.776,14.52-5.88,18.802c2.811,4.156,15.134,1.066,18.785-1.088c4.519-2.666,7.167-7.732,11.536-10.52
		c4.263-2.72,7.455-0.953,12.185-1.928c5.321-1.097,10.288-5.95,13.334-10.391c1.639-2.39,2.603-5.216,4.534-7.542
		c3.187-3.838,7.29-5.403,11.234-8.417c6.796-5.193,10.007-15.156,7.584-23.465c-1.691-5.802-7.166-6.181-11.766-3.425
		c-5.509,3.301-4.533,10.417-9.599,13.46c-4.268,2.563-13.787,2.124-18.5,2.076C196.375,133.411,187.664,130.671,179.075,128.216z"
		/>
	<path clip-path="url(#SVGID_2_)" fill="#1E2E22" d="M191.12,160.213c-1.846,5.459,3.845,9.359,5.005,13.829
		c1.895,7.297-3.076,11.759-8.575,16.054c-3.298,2.575-14.229,7.948-14.441,13.021c-0.279,6.683,12.27,8.032,17.32,7.935
		c7.854-0.151,14.169-4.527,15.759-12.55c1.139-5.749-1.22-12.146,0.607-17.809c3.699-11.46,12.275-0.28,20.485-1.933
		c12.379-2.492,6.637-7.991,9.849-15.218c3.471-7.812,14.25-1.606,20.674-4.476c2.611-1.167,4.807-4.015,6.945-5.551
		c6.338-4.548-2.738-14.655-6.72-16.351c-7.639-3.253-14.59-1.299-21.812,1.421C223.053,143.543,196.551,144.151,191.12,160.213z"/>
	<path clip-path="url(#SVGID_2_)" fill="#4B5B41" d="M322.976,431.339c-2.967,7.044-4.544,15.373-4.116,23.024
		c0.327,5.847,4.314,12.11,10.126,13.86c4.415,1.331,11.877,2.348,15.893-0.581c6.081-4.438,2.398-12.814,0.248-18.097
		c-3.529-8.665,10.233-11.784,15.104-16.357c10.768-10.108-2.353-34.562-17.031-28.798
		C333.029,408.386,326.865,422.104,322.976,431.339z"/>
	<path clip-path="url(#SVGID_2_)" fill="#4B5B41" d="M432.62,209.861c-2.382,5.657-3.648,12.346-3.305,18.49
		c0.263,4.695,3.464,9.725,8.132,11.13c3.545,1.069,9.537,1.886,12.763-0.466c4.883-3.564,1.926-10.292,0.199-14.533
		c-2.835-6.958,8.218-9.463,12.13-13.136c8.646-8.118-1.89-27.755-13.678-23.126C440.694,191.428,435.744,202.444,432.62,209.861z"
		/>
	<path clip-path="url(#SVGID_2_)" fill="#1E2E22" d="M257.18,229.581c-4.477,1.924-8.882,5.053-12.067,8.755
		c-2.434,2.829-3.371,7.469-1.476,10.842c1.438,2.562,4.416,6.328,7.556,6.758c4.755,0.649,6.765-4.825,8.113-8.201
		c2.209-5.54,9.908-0.889,14.168-0.837c9.412,0.117,14.194-16.912,4.905-20.754C271.942,223.483,263.049,227.059,257.18,229.581z"/>
	<path clip-path="url(#SVGID_2_)" fill="#D9D187" d="M61.619,402.908c7.517,1.235,11.563,0.422,18.485-2.475
		c3.167-1.325,11.08-3.023,12.446-6.777c2.356-6.471-8.58-10.48-12.808-12.328c-6.43-2.809-13.316-0.294-15.954-8.177
		c-0.793-2.368-0.743-4.817-2.198-7.11c-2.739-4.315-8.17-7.159-12.751-8.988c-3.584-1.431-11.141-4.309-14.633-1.263
		c-10.409,9.081,13.138,15.009,16.499,20.188c4.71,7.259-8.325,5.717-12.052,5.127c-5.175-0.817-10.251-0.608-15.432,0.443
		c-3.198,0.649-10.775,2.122-12.42,5.512c-2.926,6.027,6.278,6.315,9.664,6.296c8.074-0.046,11.445-6.309,18.89-0.499
		C45.938,397.994,53.316,401.544,61.619,402.908z"/>
	<path clip-path="url(#SVGID_2_)" fill="#D9D187" d="M168.755,1.001c4.004,9.76,9.012,9.01,19.245,8.999
		c6.426-0.007,16.556,1.313,21.271-2.929c2.736-2.462,2.98-7.843,5.707-11.075c3.024-3.585,8.298-4.744,11.078-7.699
		c14.604-15.523-5.628-28.53-20.06-29.297c-11.008-0.586-28.645-3.969-38.855,0.957C154.772-34.075,164.274-9.921,168.755,1.001z"/>
	<path clip-path="url(#SVGID_2_)" fill="#D9D187" d="M168.755,501.001c4.004,9.761,9.012,9.01,19.245,8.999
		c6.426-0.007,16.556,1.313,21.271-2.929c2.736-2.462,2.98-7.843,5.707-11.075c3.024-3.584,8.298-4.744,11.078-7.699
		c14.604-15.522-5.628-28.529-20.06-29.297c-11.008-0.586-28.645-3.969-38.855,0.957
		C154.772,465.925,164.274,490.078,168.755,501.001z"/>
	<path clip-path="url(#SVGID_2_)" fill="#8C9557" d="M226.244,451.766c-4.639,4.074-7.786,9.541-11.957,13.932
		c-2.961,3.117-10.184,4.193-11.997,7.638c-1.812,3.44,2.063,6.396,4.974,7.284c3.363,1.027,10.181,1.857,13.456,0.076
		c3.402-1.851,2.5-4.873,3.932-8.035c2.844-6.277,6.595-4.857,12.925-4.33c3.42,0.283,8.147-0.118,9.524-3.479
		c0.716-1.745-0.932-4.68-0.049-6.336c1.336-2.504,6.303-1.947,8.721-1.969c4.041-0.036,10.252-0.863,13.185-3.959
		c2.399-2.533,1.734-5.996-1.25-7.987c-5.14-3.429-14.897-1.346-20.679-0.512C239.789,445.133,231.801,446.885,226.244,451.766z"/>
	<path clip-path="url(#SVGID_2_)" fill="#1E2E22" d="M194.186,410.153c-7.761-2.792-18.359-3.06-24.416,3.439
		c-5.24,5.622-3.882,13.142-4.419,20.11c-0.764,9.904-7.735,10.185-17.062,10.512c-7.436,0.262-38.902,1.195-34.192,16.203
		c3.191,10.17,15.044,4.258,20.897,2.504c13.186-3.955,10.74,6.89,13.047,14.268c1.366,4.369,9.188,6.152,13.523,2.793
		c3.947-3.057-0.871-9.269,1.705-13.088c3.086-4.574,13.643-0.078,18.443-4.1c5.277-4.421,1.676-12.231,5.805-16.049
		c6.449-5.965,17.139,4.74,22.316-4.178c1.396-2.403,0.272-5.272,2.111-7.472c1.611-1.928,3.787-0.81,4.656-3.452
		c1.27-3.856-3.297-6.073-5.44-8.319C205.932,417.847,201.627,412.83,194.186,410.153z"/>
	<path clip-path="url(#SVGID_2_)" fill="#D9D187" d="M489.566,405.74c-11.142,2.433-23.437,1.908-34.309,5.238
		c-5.989,1.835-17.437,9.123-16.24,16.856c1.391,8.973,18.014,7.085,24.357,4.478c7.448-3.062,13.718-1.836,12.957,7.768
		c5.305,0.291,10.932,1.25,13.105-3.927c1.535-3.653-1.006-9.395,1.389-12.461c3.412-4.368,15.535-0.566,20.174-1.469
		c3.728-0.724,6.591-3.367,9-5.862c4.5-4.655,4.6-12.567,3.221-19.275c-1.633-7.946-10.75-8.491-15.378-3.477
		C501.896,400.052,498.864,403.711,489.566,405.74z"/>
	<rect clip-path="url(#SVGID_2_)" fill="none" width="500" height="500"/>
	<rect clip-path="url(#SVGID_2_)" fill="none" width="500" height="500"/>
	<path clip-path="url(#SVGID_2_)" fill="#1E2E22" d="M135.454,327.259c-3.958,1.675-7.371,2.844-10.929,5.346
		c-5.635,3.964-13.071,8.693-15.787,15.002c3.872,1.997,12.275,0.733,15.625-1.775c2.902-2.173,3.153-4.071,7.244-4.638
		c2.123-0.295,4.373,0.678,6.539-0.442c2.556-1.323,4.303-5.442,6.649-7.341c3.373-2.729,8.341-4.213,12.209-6.111
		c4.386-2.151,17.081-7.219,13.408-14.416c-6.528,0.622-12.216-0.08-17.95,3.469C146.868,319.813,141.539,324.685,135.454,327.259z"
		/>
	<path clip-path="url(#SVGID_2_)" fill="#1E2E22" d="M50.867,387.723c-3.899,6.35,0.078,10.684-1.483,16.793
		c-1.402,5.49-19.921,15.318-16.981,21.432c0.807,1.677,6.449,2.258,7.968,2.107c4.508-0.449,3.425-1.951,6.463-4.814
		c1.366-1.288,6.152-5.283,7.93-5.716c2.941-0.716,5.021,1.712,8.05,0.81c0.732-2.42,1.75-4.498,1.655-7.128
		c2.728-0.684,4.335,1.169,6.919,1.827c4.837,1.231,11.096,0.871,15.762-0.486c4.993-1.451,17.674-13.054,11.458-18.834
		c-8.714-8.104-20.552,14.898-30.247,9.535c-15.412-8.524,13.52-15.582,17.988-17.31c3.403-1.315,12.856-7.803,7.365-12.284
		c-3.749-3.061-10.26,3.168-13.529,4.408c-1.215,0.46-2.461,1.424-3.645,1.979c-1.751,0.821-1.611-16.041-8.393-14.799
		c-6.725,1.23-4.292,7.771-6.032,11.811C60.159,381.602,53.651,383.189,50.867,387.723z"/>
	<path clip-path="url(#SVGID_2_)" fill="#1E2E22" d="M206.376,336.035c0.917-2.988,2.996-4.775,6.207-3.195
		c4.917,2.42,0.94,8.897,4.858,11.848c5.422,4.084,14.305-3.031,17.721,5.108c2.938,6.997-5.16,5.675-9.987,7.265
		c-7.059,2.324-4.592,6.834-7.407,12.393c-4.442,8.776-21.227,8.642-30.055,9.761c-4.26,0.54-12.55,2.069-9.54-5.007
		c2.558-6.013,9.722-3.863,14.763-4.428c7.458-0.836,14.655-4.432,11.519-11.963c-2.435-5.845,1.74-4.787,6.353-3.494
		C212.53,348.144,204.223,343.054,206.376,336.035z"/>
	<path clip-path="url(#SVGID_2_)" fill="#1E2E22" d="M284.522,80.49c2.891-2.117,4.465-4.986,8.52-5.666
		c6.738-1.131,13.109,2.527,17.46-5.552c2.128-3.952,2.131-9.521-1.896-11.864c-7.827-4.554-11.539,7.759-18.367,8.002
		c-0.326-14.091-13.338,0.395-16.391,4.276c-2.993,3.808-6.65,8.594-1.314,12.244C276.087,84.363,281.346,82.818,284.522,80.49z"/>
</g>
</svg>
