<?xml version="1.0" encoding="utf-8"?>
<!-- Generator: Adobe Illustrator 16.0.0, SVG Export Plug-In . SVG Version: 6.00 Build 0)  -->
<!DOCTYPE svg PUBLIC "-//W3C//DTD SVG 1.1//EN" "http://www.w3.org/Graphics/SVG/1.1/DTD/svg11.dtd">
<svg version="1.1" id="Layer_1" xmlns="http://www.w3.org/2000/svg" xmlns:xlink="http://www.w3.org/1999/xlink" x="0px" y="0px"
	 width="1000px" height="826.79px" viewBox="0 0 1000 826.79" enable-background="new 0 0 1000 826.79" xml:space="preserve">
<path fill-rule="evenodd" clip-rule="evenodd" d="M927.477,268.067c4.182,3.985,8.403,7.925,12.531,11.964
	c6.315,6.18,8.651,13.495,5.572,21.999c-3.483,9.618-13.854,14.591-23.666,11.553c-5.979-1.852-11.945-3.741-17.915-5.62
	c-2.834-0.893-5.788-1.495-7.575,1.582c-1.841,3.169-0.657,6.115,1.815,8.479c8.496,8.119,14.285,18.001,18.147,28.929
	c4.198,11.878,6.685,24.08,4.49,36.828c-0.467,2.714-1.487,3.58-4.193,2.887c-2.437-0.624-4.97-0.897-7.473-1.231
	c-4.838-0.646-7.208,1.765-6.004,6.486c4.287,16.815,4.433,33.938,4.022,51.108c-0.042,1.768-0.712,3.518-0.785,5.287
	c-0.104,2.498-1.343,3.249-3.685,3.403c-3.664,0.241-8.207-1.639-10.768,1.021c-2.367,2.459-0.46,6.884-0.895,10.408
	c-1.029,8.342-2.897,16.428-7.608,23.588c-4.374,6.648-6.376,14.439-10.283,21.314c-3.02,5.313-6.038,10.629-8.913,16.02
	c-1.214,2.274-3.405,3.341-5.268,4.742c-11.434,8.596-16.434,20.217-17.298,34.254c-1.204,19.592-6.136,38.247-16.372,55.154
	c-6.08,10.044-8.486,21.243-11.258,32.34c-4.974,19.912-7.209,40.13-6.477,60.692c0.201,5.641-1.476,11.205-2.814,16.696
	c-2.886,11.845,2.7,21.551,14.645,24.122c8.473,1.823,14.931,8.522,20.748,14.948c10.375,11.46,16.339,25.162,19.003,40.3
	c0.771,4.38,1.021,8.856,1.419,13.297c0.171,1.898-0.242,3.896,1.559,5.387c-2.04,0.964-3.861,0.589-5.621,0.59
	c-48.73,0.022-97.463-0.154-146.192,0.194c-7.794,0.056-13.891-1.227-18.166-8.118c-2.221-3.578-5.717-6.085-8.871-8.735
	c-7.889-6.63-11.292-15.194-11.476-25.131c-0.227-12.253,0.021-24.516-0.089-36.771c-0.049-5.412,1.373-10.25,4.329-14.756
	c3.835-5.845,2.701-16.636-2.187-21.738c-3.984-4.157-6.935-9.278-6.376-14.804c1.109-10.955-2.52-19.727-8.817-28.395
	c-6.506-8.953-10.338-19.4-13.121-30.168c-0.706-2.729-0.66-5.211,0.162-7.877c2.263-7.322,0.475-11.563-6.335-14.534
	c-9.099-3.969-16.499-10.12-22.994-17.44c-1.628-1.835-2.934-2.295-5.345-1.378c-14.27,5.424-28.989,8.78-44.266,10.021
	c-34.817,2.827-68.201-3.02-100.666-15.457c-18.794-7.201-36.305-16.781-52.366-28.733c-9.084-6.759-18.054-12.954-29.318-15.48
	c-10.183-2.284-20.23-2.26-30.528-0.896c-11.098,1.469-22.072-0.065-32.374-4.58c-3.535-1.548-4.819-0.669-6.495,2.445
	c-10.304,19.17-19.996,38.74-31.499,57.172c-13.252,21.234-33.426,32.117-58.596,33.19c-2.34,0.101-3.793,0.74-4.951,2.92
	c-10.983,20.671-22.067,41.289-33.148,61.909c-6.139,11.426-12.398,22.789-18.465,34.254c-3.218,6.082-1.967,10.909,4.137,14.274
	c10.97,6.048,16.018,15.148,15.386,27.543c-0.302,5.923,2.168,10.251,7.183,13.415c11.1,7.008,15.99,17.24,15.213,30.264
	c-0.392,6.574-1.258,7.404-7.763,7.405c-36.922,0.007-73.844,0.004-110.767,0.004c-6.278,0-12.565-0.202-18.832,0.063
	c-4.831,0.204-7.48-2.374-9.309-6.241c-5.023-10.627-7.176-22.038-8.905-33.545c-0.946-6.298-4.937-9.776-10.717-11.192
	c-15.02-3.684-18.021-13.473-7.43-25.009c2.819-3.069,5.75-6.039,9.277-8.392c3.568-2.382,3.563-5.257,0.012-7.66
	c-5.862-3.968-10.909-8.621-14.969-14.531c-2.566-3.735-2.517-6.93,0.021-10.194c4.563-5.87,8.77-12.08,15.067-16.388
	c1.726-1.18,3.039-2.836,3.888-4.83c1.344-3.16,0.835-5.148-2.719-6.587c-8.308-3.36-16.052-7.845-23.614-12.668
	c-11.436-7.293-8.506-25.039,1.676-29.664c17.061-7.747,32.432-18.418,45.494-31.945c11.984-12.412,18.363-27.467,19.979-44.788
	c1.194-12.801-2.191-24.743-5.012-36.87c-3.012-12.94-4.619-26.016-5.09-39.327c-0.856-24.211,1.988-47.874,9.218-70.967
	c2.178-6.952,4.958-13.729,7.735-20.474c1.212-2.947,0.94-4.274-2.444-4.93c-15.56-3.02-29.967-9.034-42.917-18.105
	c-16.595-11.624-29.977-26.126-39.242-44.436c-9.381-18.543-13.838-38.134-12.824-58.684c1.299-26.318,9.938-49.898,27.879-69.914
	c16.678-18.607,37.187-29.994,61.442-34.751c8.445-1.656,17.102-2.055,25.773-2.293c31.545-0.866,62.437,2.937,92.705,11.837
	c14.901,4.381,29.329,10.046,43.437,16.496c25.236,11.537,51.527,19.15,79.032,23.121c17.837,2.574,35.702,3.062,53.544,2.234
	c13.265-0.616,26.937-0.846,39.102-7.669c18.379-10.309,28.134-25.875,29.043-47.089c0.784-18.276-4.915-34.187-17.327-47.366
	c-9.742-10.346-21.933-17.117-36.137-19.036c-28.867-3.899-55.983,2.545-81.803,15.248c-6.663,3.278-12.56,8.087-19.941,9.946
	c-14.171,3.572-27.095,1.654-37.314-9.531c-5.316-5.818-7.751-12.962-6.046-21.071c1.486-7.065,1.858-14.166,0.397-21.3
	c-1.367-6.674-6.04-8.6-11.3-4.401c-8.197,6.541-17.324,10.423-27.915,10.343c-6.428-0.049-10.614-2.943-12.444-8.336
	c-1.53-4.506,0.258-8.402,5.191-12.639c3.215-2.761,6.601-5.177,10.519-6.678c3.742-1.434,7.642-2.457,11.901-3.794
	c-3.35-3.525-6.188-7.159-5.69-12.375c0.443-4.641,4.485-9.685,9.088-10.343c5.444-0.778,10.914-1.507,16.398-1.811
	c3.048-0.168,4.434-1.077,4.168-4.21c-0.139-1.631-0.099-3.293,0.034-4.928c0.457-5.62,3.727-8.853,9.229-8.864
	c22.722-0.05,45.444-0.145,68.164,0.03c12.331,0.095,25.156,13.672,25.228,26.536c0.039,6.858,1.237,13.274,4.544,19.35
	c2.553,4.689,6.188,6.999,11.52,7.922c17.001,2.943,34.123,5.451,50.812,9.867c23.024,6.091,41.29,19.366,55.567,38.371
	c10.752,14.313,17.17,30.426,19.036,48.047c2.291,21.645-1.975,42.146-13.446,60.919c-15.717,25.719-39.347,39.813-68.024,46.71
	c-19.008,4.571-38.133,7.54-57.752,8.398c-31.668,1.385-62.282-3.417-92.299-12.938c-14.094-4.47-27.433-10.863-40.776-17.144
	c-24.291-11.437-49.694-19.247-76.088-23.904c-14.964-2.641-30.065-4.834-45.253-4.376c-22.498,0.676-41.475,9.279-56.27,26.818
	c-13.724,16.27-19.048,35.176-16.864,55.762c3.58,33.741,29.67,60.028,63.512,64.014c17.255,2.032,32.548-2.242,47.104-11.324
	c24.108-15.042,50.63-23.743,78.574-28.178c12.953-2.056,26.035-3.347,39.168-2.717c19.52,0.936,38.697,3.877,57.585,9.249
	c10.9,3.101,20.257,9.319,30.795,13.063c20.105,7.142,40.638,9.527,61.582,5.667c30.272-5.579,59.278-15.768,88.399-25.463
	c0.422-0.14,0.89-0.28,1.212-0.561c6.167-5.381,12.451-10.495,19.788-14.374c3.284-1.736,2.606-4.333-0.955-5.388
	c-7.35-2.175-8.068-8.68-9.294-14.514c-3.911-18.601,1.882-34.948,12.126-50.253c3.807-5.688,7.124-11.711,10.502-17.674
	c2.25-3.974,1.59-4.982-2.906-5.155c-9.677-0.373-10.148-1.61-5.063-10.442c8.681-15.075,19.271-28.573,31.287-41.17
	c8.364-8.767,27.046-7.249,30.857,7.475c1.418,5.473,3.39,10.802,5.06,16.212c1.28,4.148,3.022,5.159,6.894,3.17
	c7.823-4.021,15.568-8.201,23.216-12.545c3.559-2.022,3.322-5.542-0.318-7.717c-3.07-1.834-6.204-3.577-9.386-5.205
	c-15.943-8.155-31.9-16.285-47.878-24.369c-6.906-3.494-11.363-8.583-11.442-16.713c-0.03-3.086,0.938-5.006,4.539-5.272
	c9.338-0.689,18.638-2.135,27.979-2.45c16.022-0.541,31.525-4.278,47.229-6.786c3.084-0.493,6.171-0.969,9.252-1.482
	c4.312-0.719,5.176-2.229,3.213-6.091c-1.004-1.976-2.363-3.783-3.66-5.596c-2.349-3.282-2.007-6.749-0.691-10.213
	c1.385-3.647,4.647-3.042,7.614-3.187c1.653-0.081,3.853,0.858,4.708-1.435c0.764-2.047-0.884-3.28-2.111-4.581
	c-4.912-5.207-9.838-10.402-14.716-15.64c-4.686-5.03-5.901-11.964-3.267-17.319c1.039-2.112,2.438-3.193,4.867-3.151
	c5.081,0.087,10.167-0.082,15.246,0.031c8.524,0.188,16.847-1.038,25.29-2.218c18.059-2.524,35.066,1.17,49.746,12.661
	c2.406,1.882,4.685,2.707,7.358,1.61c2.607-1.069,2.131-3.657,2.146-5.868c0.028-3.886-0.03-7.774,0.023-11.659
	c0.081-5.84,3.073-7.769,8.482-5.205c7.271,3.444,14.31,7.392,21.65,10.667c8.675,3.87,17.237,8.49,26.993,8.851
	c6.9,0.254,13.049,2.703,19.365,4.952c7.725,2.75,11.572,9.693,16.679,15.181c8.107,8.715,15.74,17.872,23.558,26.857
	c7.427,8.534,14.876,17.049,22.227,25.648c2.679,3.132,5.551,5.521,9.834,6.376c22.226,4.442,38.795,17.029,49.88,36.495
	c3.682,6.464,9.705,9.539,15.049,13.587c15.313,11.603,30.925,22.811,46.49,34.075c2.642,1.912,3.667,3.667,3.342,7.329
	c-1.69,19.021-10.209,34.685-22.897,48.338c-3.313,3.566-7.643,6.168-11.283,9.457c-4.511,4.074-9.499,2.384-14.425,1.588
	c-7.729-1.249-15.439-2.611-23.158-3.925C927.943,267.458,927.711,267.763,927.477,268.067z M720.252,300.119
	c-2.947,0-5.339,0.086-7.72-0.022c-2.85-0.129-3.704,1.336-3.419,3.881c1.88,16.776,7.399,32.045,18.206,45.28
	c1.897,2.324,2.729,1.356,4.026-0.077c10.237-11.291,15.756-24.655,17.622-39.686c0.5-4.032-1.432-5.809-4.997-6.439
	C735.932,301.637,727.967,299.579,720.252,300.119z M598.736,216.229c0.507,10.816,3.118,22.778,8.431,34.14
	c1.273,2.725,2.554,3.719,5.331,1.828c8.15-5.55,15.892-11.501,21.943-19.454c1.832-2.407,1.261-4.087-0.542-5.793
	c-8.226-7.788-17.771-13.438-28.384-17.318C598.905,207.214,598.729,207.358,598.736,216.229z M688.802,240.006
	c-1.91-0.141-1.245,1.83-1.239,3.128c0.061,12.13,4.022,22.968,10.732,32.985c1.669,2.491,2.886,2.712,5.232,1.032
	c10.138-7.252,19.001-15.713,25.697-26.309c0.953-1.507,2.274-3.043,1.348-4.906c-0.998-2.009-3.145-1.573-4.818-1.388
	c-8.166,0.901-16.277,0.618-24.298-1.057C697.398,242.645,693.445,241.304,688.802,240.006z M628.158,282.179
	c-1.786,0-3.281,0.063-4.77-0.013c-4.001-0.205-5.349,1.848-4.881,5.554c1.394,11.083,4.587,21.444,11.349,30.591
	c1.854,2.509,2.876,2.316,4.71,0.326c6.948-7.54,11.871-16.309,15.939-25.639c0.968-2.221-0.109-3.361-1.688-4.443
	C642.505,284.234,635.656,281.652,628.158,282.179z M752.215,372.688c-2.438,0.334-5.251,0.623-8.021,1.139
	c-1.489,0.276-2.92,0.882-2.397,2.985c3.202,12.894,9.749,23.886,19.007,33.306c2.433,2.476,3.865,1.399,5.004-1.514
	c2.193-5.616,3.048-11.512,3.613-17.405c1.138-11.844-2.353-16.441-13.263-18.251C754.988,372.753,753.781,372.785,752.215,372.688z
	 M709.93,431.06c-5.883-0.504-10.432,2.303-14.271,6.615c-1.26,1.414-1.766,2.897-0.913,4.881
	c3.998,9.313,10.91,16.257,18.314,22.799c1.965,1.736,3.391,1.341,4.865-1.093c4.444-7.332,6.265-15.027,4.264-23.469
	C720.121,432.072,718.849,431.057,709.93,431.06z M679.37,180.489c-2.613-0.615-3.699,1.604-3.567,5.789
	c0.26,8.2,2.72,15.719,5.963,23.13c1.432,3.27,3.114,3.34,5.82,1.663c6.513-4.037,12.234-8.889,16.794-15.105
	c1.074-1.463,1.315-2.436-0.016-3.811C698.035,185.613,690.501,181.578,679.37,180.489z M775.57,112.16
	c4.675,0.562,9.529-1.473,14.487-3.018c2.995-0.934,3.294-2.585,1.289-4.769c-7.055-7.684-14.746-14.651-23.29-20.666
	c-1.729-1.217-2.656-0.609-3.439,1.063c-2.024,4.333-3.652,8.688-3.588,13.642C761.185,110.007,763.237,112.164,775.57,112.16z
	 M682.092,382.762c-6.726,0.824-12.28,3.154-16.188,8.754c-1.56,2.234-1.749,4.208-0.776,6.656
	c2.578,6.495,6.288,12.146,11.55,16.799c1.921,1.697,2.674,1.951,3.289-1.044c1.593-7.746,3.991-15.281,7.422-22.427
	c3.417-7.118,2.764-8.336-5.119-8.737C682.12,382.755,681.971,382.762,682.092,382.762z M763.843,156.98
	c-0.352,4.637,0.102,9.349,1.401,13.997c0.488,1.747,0.928,2.787,2.963,1.578c6.03-3.583,12.01-7.207,16.798-12.471
	c2.251-2.474,2.075-4.807-0.218-7.047c-4.827-4.722-10.416-8.4-16.213-11.806c-1.931-1.135-2.771-0.885-3.361,1.421
	C764.017,147.323,763.502,152.018,763.843,156.98z M666.875,131.383c-0.06,5.807,1.396,10.595,3.679,15.205
	c1.015,2.05,2.214,2.394,4.276,1.411c2.939-1.401,5.056-3.713,7.133-6.027c8.175-9.11,6.247-17.346-5.022-21.824
	c-1.104-0.439-2.251-0.786-3.396-1.109c-2.337-0.661-4.076-0.211-4.764,2.463C667.893,124.959,666.586,128.332,666.875,131.383z
	 M775.968,210.482c-1.583-0.009-1.335,1.093-1.506,1.907c-1.839,8.827,1.343,16.285,6.366,23.226c1.3,1.796,3.042,1.594,4.805,0.84
	c4.693-2.009,8.048-5.478,10.636-9.791c1.441-2.401,0.809-3.989-1.478-5.561c-5.408-3.718-11.028-7.026-16.978-9.788
	C777.146,211.007,776.471,210.71,775.968,210.482z M833.234,336.349c-0.351-3.008,1.339-6.844-3.233-8.2
	c-5.133-1.521-10.171-1.641-15.241,0.492c-2.141,0.9-2.611,1.909-1.874,4.067c2.587,7.581,7.342,13.448,13.718,18.153
	c1.88,1.389,3.017,0.856,3.596-1.151C831.467,345.322,833.847,341.179,833.234,336.349z M788.887,279.029
	c0.011,6.973,2.78,13.349,7.157,17.666c2.048,2.019,3.154,1.45,4.398-0.582c3.011-4.915,4.599-10.317,4.925-15.999
	c0.27-4.728-5.776-9.399-11.651-9.399C789.986,270.715,788.877,272.626,788.887,279.029z M798.234,439.753
	c0.486-14.174-0.691-15.719-14.644-10.985c-0.691,0.233-1.352,0.639-1.942,1.077c-1.017,0.756-1.545,1.643-1.106,3.064
	c2.337,7.579,6.753,13.486,13.712,17.402c1.61,0.906,2.583,0.778,3.25-1.317C798.582,445.613,798.09,442.204,798.234,439.753z
	 M656.418,344.06c-4.473,0.5-8.737,1.538-12.147,4.858c-0.911,0.888-1.736,1.669-1.356,3.029c1.576,5.637,3.967,10.916,7.344,15.693
	c1.353,1.914,2.078,1.31,2.819-0.798c1.375-3.915,3.16-7.688,4.841-11.492c1.086-2.458,2.138-4.879,2.233-7.65
	C660.245,345.009,659.185,343.758,656.418,344.06z M572.728,345.792c-0.453,5.618,2.207,10.086,5.329,14.356
	c1.57,2.149,3.128,2.508,4.845-0.042c2.454-3.645,3.884-7.661,5.035-11.853c0.989-3.595-1.076-5.779-3.449-7.591
	c-2.729-2.085-5.964-2.639-9.309-1.391C571.896,340.496,572.943,343.397,572.728,345.792z M654.74,469.039
	c0.481-4.019-2.535-5.129-5.784-5.495c-3.586-0.403-7.187,3.946-7.147,8.176c0.034,3.707,2.852,7.063,6.013,7.161
	C651.358,478.99,654.792,474.26,654.74,469.039z M556.582,292.833c-0.173,2.134,0.367,4.063,1.28,5.998
	c1.462,3.101,3.314,3.776,5.639,1.066c2.301-2.685,4.384-5.558,6.499-8.396c0.635-0.852,1.079-2.032,0.011-2.78
	c-3.349-2.345-7.208-2.839-11.029-1.885C555.915,287.602,556.787,290.583,556.582,292.833z M598.324,388.971
	c-3.549,0.005-5.702,1.727-5.62,4.211c0.122,3.657,3.289,8.926,5.015,8.124c3.459-1.608,4.191-5.332,4.754-8.608
	C602.986,389.705,600.206,389.364,598.324,388.971z"/>
</svg>
